<svg xmlns="http://www.w3.org/2000/svg" viewBox="0 0 295.59 63.14"><defs><style>.cls-1,.cls-2{fill:#fca100;}.cls-1{fill-rule:evenodd;}.cls-3{fill:#fff;}.cls-4{font-size:22.96px;fill:#fffefd;font-family:BernhardFashionBT-Regular, BernhardFashion BT;}.cls-5{letter-spacing:-0.02em;}</style></defs><title>Asset 3</title><g id="Layer_2" data-name="Layer 2"><g id="Layer_2-2" data-name="Layer 2"><path class="cls-1" d="M2.35,14A3.41,3.41,0,0,0,.09,18L6.35,44.74a3.43,3.43,0,0,0,4.13,2.56L57.27,36.35a3.43,3.43,0,0,0,2.55-4.11l-1.77-7.56L56,26.46l-4.4-5.22,4.76-4-1.42-6.08-3.84,1.13L49.11,5.74l4.07-1.19a3.4,3.4,0,0,0-3.44-1.67L37.38,5.77,35.5,1.6a2.68,2.68,0,0,0-3-1.53l-8,1.86L16.59,3.78a2.67,2.67,0,0,0-2,2.73l.16,4.56Zm24.76-1A12.34,12.34,0,0,1,32,12.81h0a12.47,12.47,0,0,1,4.56,1.71h0a12.28,12.28,0,0,1,3.56,3.33h0a12.55,12.55,0,0,1,2,4.42,12.94,12.94,0,0,1,.17,4.87h0a12.14,12.14,0,0,1-1.71,4.55h0a12.8,12.8,0,0,1-3.33,3.56h0a12.57,12.57,0,0,1-9.31,2.18h0a12.79,12.79,0,0,1-4.55-1.71h0a12.34,12.34,0,0,1-3.55-3.32h0a12.82,12.82,0,0,1-2-4.44,12.63,12.63,0,0,1-.16-4.85h0a12.52,12.52,0,0,1,1.71-4.57h0A12.46,12.46,0,0,1,22.68,15h0a12.44,12.44,0,0,1,4.43-2ZM7.39,15.64A2.35,2.35,0,0,1,10.27,18a2.32,2.32,0,0,1-1.22,2,2.35,2.35,0,1,1-1.66-4.35Zm27,2.33a8.69,8.69,0,0,0-3.07-1.17,8.31,8.31,0,0,0-3.28.13,8.4,8.4,0,0,0-3,1.34,8.56,8.56,0,0,0-2.24,2.41,8.74,8.74,0,0,0-1.17,3.08,8.35,8.35,0,0,0,3.88,8.51,8.48,8.48,0,0,0,9.34-.3,8.67,8.67,0,0,0,3.42-5.48,8.75,8.75,0,0,0-.13-3.29,8.56,8.56,0,0,0-1.34-3A8.76,8.76,0,0,0,34.39,18Z"/><polygon class="cls-1" points="52.52 21.33 58.33 16.45 61.82 20.61 56.02 25.48 52.52 21.33"/><rect class="cls-2" x="50.57" y="5.03" width="7.59" height="5.44" transform="translate(0.03 15.69) rotate(-16.43)"/><polygon class="cls-1" points="59.95 11.88 64.25 10.6 65.17 13.69 60.86 14.97 59.95 11.88"/><polygon class="cls-1" points="64.87 17.06 69.16 15.8 70.08 18.88 65.78 20.16 64.87 17.06"/><polygon class="cls-1" points="61.09 23.36 65.39 22.09 66.31 25.18 62 26.45 61.09 23.36"/><rect class="cls-2" x="63.77" y="4.28" width="3.83" height="2.74" transform="translate(12.69 44.87) rotate(-41.43)"/><rect class="cls-2" x="71.34" y="18.47" width="2.74" height="3.82" transform="translate(48.38 91.87) rotate(-86.86)"/><polygon class="cls-1" points="70.32 4.99 73.11 3.37 74.28 5.37 71.49 7 70.32 4.99"/><polygon class="cls-1" points="68.75 12.46 71.54 10.82 72.71 12.84 69.92 14.46 68.75 12.46"/><rect class="cls-2" x="66.74" y="27.22" width="3.82" height="2.74" transform="translate(-5.06 38.45) rotate(-30.23)"/><path class="cls-3" d="M101.65,34.63H94L89.43,27c-.35-.57-.68-1.09-1-1.54a9.11,9.11,0,0,0-1-1.16,3.83,3.83,0,0,0-1-.75,2.57,2.57,0,0,0-1.14-.25H83.54v11.3H76.89V20.58l2.55.73.89-3-3.44-1V5.11H87.43q10.74,0,10.75,8A8.25,8.25,0,0,1,97.7,16a7.71,7.71,0,0,1-1.34,2.35,8.38,8.38,0,0,1-2.09,1.82,11,11,0,0,1-2.72,1.19v.08a4.33,4.33,0,0,1,1.27.67A9.92,9.92,0,0,1,94,23.18a16.19,16.19,0,0,1,1.1,1.33c.35.47.67.94,1,1.39ZM83.54,10.09V18.3h2.88a4.8,4.8,0,0,0,3.44-1.23A4.13,4.13,0,0,0,91.18,14q0-3.87-4.64-3.87Z"/><path class="cls-3" d="M130.38,34.59h-7.25L121,28h-10.5l-2.08,6.56h-7.21L112,5.07h7.89ZM119.51,22.92,116.34,13a12.74,12.74,0,0,1-.5-2.66h-.16a11,11,0,0,1-.52,2.57l-3.21,10Z"/><path class="cls-3" d="M146.37,22.88q0,5.93-2.74,9.08t-8,3.15a11.48,11.48,0,0,1-4.31-.8V28.07a6.22,6.22,0,0,0,3.83,1.3c3,0,4.55-2.26,4.55-6.76V5.07h6.63Z"/><path class="cls-3" d="M173.88,34.59h-4.82l-11.4-13.5a7.19,7.19,0,0,1-.78-1h-.09V34.59h-3.46V5.07h3.46V19h.09a7.94,7.94,0,0,1,.78-1l11-12.87H173L160.33,19.24Z"/><path class="cls-3" d="M200.65,34.59h-3.83l-3.13-8.27H181.17l-2.94,8.27h-3.85L185.7,5.07h3.58Zm-8.09-11.38-4.64-12.58a12,12,0,0,1-.45-2h-.08a11,11,0,0,1-.48,2l-4.59,12.58Z"/><path class="cls-3" d="M235.09,34.59h-3.44V14.79c0-1.57.1-3.48.29-5.75h-.08a19.84,19.84,0,0,1-.88,2.87L220.89,34.59H219.2L209.13,12.07a18.22,18.22,0,0,1-.89-3h-.08c.11,1.18.17,3.11.17,5.79V34.59H205V5.07h4.57l9.06,20.59A27.21,27.21,0,0,1,220,29.2h.12c.59-1.62,1.07-2.83,1.42-3.62l9.25-20.51h4.32Z"/><path class="cls-3" d="M265.71,34.59h-3.83l-3.13-8.27H246.23l-2.94,8.27h-3.85L250.76,5.07h3.58Zm-8.09-11.38L253,10.63a12,12,0,0,1-.45-2h-.08a12.11,12.11,0,0,1-.47,2l-4.6,12.58Z"/><path class="cls-3" d="M285.37,34.59H270.05V5.07h3.46V31.46h11.86Z"/><rect class="cls-2" x="76.71" y="17.59" width="2.32" height="3.25" transform="translate(37.63 88.6) rotate(-73.75)"/><text class="cls-4" transform="translate(251.33 56.49) rotate(-19.76)"><tspan class="cls-5">F</tspan><tspan x="17.01" y="0">ilms</tspan></text></g></g></svg>